<svg xmlns="http://www.w3.org/2000/svg" width="16" height="16" viewBox="0 0 16 16" fill="none">
  <path d="M8.69671 3.87536L11.988 7.16669H2.16671C1.94569 7.16669 1.73373 7.25449 1.57745 7.41077C1.42117 7.56705 1.33337 7.77901 1.33337 8.00002C1.33337 8.22104 1.42117 8.433 1.57745 8.58928C1.73373 8.74556 1.94569 8.83336 2.16671 8.83336H11.988L8.69671 12.1247C8.54041 12.281 8.4526 12.493 8.4526 12.714C8.4526 12.9351 8.54041 13.1471 8.69671 13.3034C8.85301 13.4597 9.065 13.5475 9.28604 13.5475C9.50708 13.5475 9.71907 13.4597 9.87537 13.3034L14.5887 8.58936C14.6661 8.51197 14.7275 8.4201 14.7694 8.31898C14.8113 8.21786 14.8329 8.10948 14.8329 8.00002C14.8329 7.89057 14.8113 7.78219 14.7694 7.68107C14.7275 7.57995 14.6661 7.48808 14.5887 7.41069L9.87537 2.69736C9.71907 2.54106 9.50708 2.45325 9.28604 2.45325C9.065 2.45325 8.85301 2.54106 8.69671 2.69736C8.54041 2.85366 8.4526 3.06565 8.4526 3.28669C8.4526 3.50773 8.54041 3.71906 8.69671 3.87536Z" fill="#1C1B1F"/>
</svg>
