<svg xmlns="http://www.w3.org/2000/svg" width="48" height="48" viewBox="0 0 48 48" fill="none">
  <path d="M37.2354 19.087C36.4865 19.0891 35.7403 19.1754 35.0108 19.3442L33.1891 13.3583H37.5968C37.8807 13.3573 38.1535 13.4693 38.3549 13.6694C38.5564 13.8696 38.6701 14.1416 38.671 14.4256C38.6719 14.7096 38.56 14.9823 38.3598 15.1837C38.1597 15.3852 37.8877 15.4989 37.6037 15.4998L36.5145 15.5064C36.3259 15.5091 36.146 15.5859 36.0138 15.7204C35.8816 15.8548 35.8077 16.036 35.8083 16.2246C35.8088 16.4131 35.8837 16.5939 36.0167 16.7276C36.1497 16.8612 36.33 16.9371 36.5186 16.9386H36.5229L37.6121 16.932C38.2736 16.9264 38.9061 16.6592 39.3712 16.1887C39.8364 15.7183 40.0963 15.0828 40.0942 14.4212C40.0921 13.7596 39.8282 13.1257 39.3602 12.6582C38.8921 12.1906 38.258 11.9274 37.5964 11.926H32.2222C32.1104 11.9261 32.0001 11.9523 31.9002 12.0026C31.8003 12.0529 31.7136 12.126 31.647 12.2158C31.5805 12.3057 31.5358 12.4099 31.5168 12.5201C31.4977 12.6303 31.5047 12.7435 31.5372 12.8505L32.1839 14.9753H18.5159L17.5434 12.6423H18.9113C18.9213 12.6423 18.9319 12.6423 18.942 12.6416C19.3763 12.6262 19.7928 12.4652 20.1245 12.1844C20.4562 11.9037 20.6838 11.5195 20.7707 11.0937C20.8196 10.8494 20.82 10.5979 20.7716 10.3535C20.7233 10.1091 20.6273 9.87666 20.4891 9.6694C20.3509 9.46213 20.1732 9.28413 19.9662 9.14557C19.7591 9.00701 19.5268 8.91061 19.2825 8.86187L15.2165 8.04956C14.8882 7.98385 14.5501 7.98348 14.2216 8.04845C13.8931 8.11343 13.5807 8.24248 13.3021 8.42823C13.0235 8.61399 12.7842 8.85281 12.598 9.13105C12.4117 9.4093 12.2821 9.72151 12.2165 10.0499C12.1549 10.3583 12.1616 10.6765 12.2361 10.9821C12.3106 11.2877 12.4512 11.5733 12.6479 11.8188C12.8495 12.0707 13.1042 12.2752 13.3937 12.4176C13.6832 12.5601 14.0005 12.6372 14.3231 12.6432H15.9918L17.2379 15.6314L14.5292 20.1691C13.1779 19.4882 11.69 19.1223 10.177 19.0986C8.6641 19.075 7.16544 19.3943 5.79352 20.0326C4.4216 20.6709 3.21205 21.6115 2.25562 22.7841C1.29919 23.9566 0.620723 25.3305 0.271122 26.8027C-0.0784793 28.2749 -0.0901332 29.8071 0.237035 31.2845C0.564202 32.7618 1.2217 34.1459 2.16018 35.3328C3.09866 36.5198 4.29377 37.4787 5.65582 38.1378C7.01787 38.7969 8.5115 39.139 10.0246 39.1383C15.3109 39.1383 19.6438 35.023 20.0135 29.8292H20.8676C21.0256 30.4422 21.3824 30.9856 21.8823 31.3741C22.3821 31.7627 22.9967 31.9745 23.6298 31.9764C23.6967 31.9764 23.759 31.9612 23.8253 31.9567L24.7853 34.8408H24.3461C24.1562 34.8408 23.974 34.9162 23.8397 35.0505C23.7054 35.1848 23.63 35.367 23.63 35.5569C23.63 35.7468 23.7054 35.929 23.8397 36.0633C23.974 36.1976 24.1562 36.273 24.3461 36.273H27.1901C27.38 36.273 27.5622 36.1976 27.6965 36.0633C27.8308 35.929 27.9062 35.7468 27.9062 35.5569C27.9062 35.367 27.8308 35.1848 27.6965 35.0505C27.5622 34.9162 27.38 34.8408 27.1901 34.8408H26.2947L25.187 31.5105C25.5313 31.2903 25.824 30.9984 26.0449 30.6545C26.2659 30.3107 26.4099 29.9232 26.467 29.5185C26.5242 29.1139 26.4932 28.7016 26.3762 28.31C26.2591 27.9185 26.0588 27.5568 25.7889 27.2499L32.8893 17.2911L33.6419 19.764C31.3172 20.6659 29.4134 22.4037 28.3036 24.6367C27.1938 26.8696 26.9582 29.4366 27.6429 31.8342C28.3277 34.2319 29.8834 36.2873 32.005 37.5974C34.1267 38.9074 36.6612 39.3777 39.1116 38.9159C41.562 38.4542 43.7515 37.0937 45.2508 35.1013C46.7501 33.1088 47.451 30.6282 47.2161 28.1458C46.9812 25.6633 45.8275 23.3582 43.9811 21.6823C42.1347 20.0065 39.7289 19.0808 37.2354 19.0868V19.087ZM13.6207 10.3303C13.6493 10.1863 13.7061 10.0494 13.7877 9.92741C13.8694 9.8054 13.9743 9.70068 14.0964 9.61924C14.2185 9.53779 14.3555 9.48122 14.4995 9.45276C14.6435 9.4243 14.7917 9.42451 14.9357 9.45337C19.1436 10.3428 19.1071 10.1786 19.2976 10.4639C19.5061 10.7777 19.2762 11.1846 18.8927 11.21L14.342 11.2111C14.2337 11.2092 14.1271 11.1838 14.0296 11.1365C13.9321 11.0893 13.8461 11.0214 13.7774 10.9376C13.7088 10.8538 13.6593 10.7561 13.6322 10.6512C13.6051 10.5464 13.6012 10.4368 13.6207 10.3303ZM17.9234 17.2764L21.909 26.837C21.3963 27.2247 21.0293 27.7738 20.8671 28.3957H20.0131C19.9065 26.9087 19.4694 25.4642 18.7335 24.1676C17.9976 22.8711 16.9815 21.7551 15.7594 20.9013L17.9234 17.2764ZM17.1488 28.3957C17.0476 27.4049 16.7407 26.4462 16.2476 25.5808C15.7546 24.7155 15.0862 23.9626 14.2855 23.3704L15.0224 22.1359C16.0334 22.8594 16.8752 23.7939 17.4895 24.8747C18.1039 25.9555 18.4761 27.1569 18.5805 28.3957H17.1488ZM9.40146 29.4656C9.46395 29.5757 9.5545 29.6672 9.66388 29.7309C9.77327 29.7946 9.89759 29.8282 10.0242 29.8282H15.7031C15.5535 31.0233 15.0311 32.1409 14.2103 33.0224C13.3895 33.9038 12.3119 34.5044 11.1304 34.7387C9.94899 34.973 8.72375 34.8292 7.62864 34.3277C6.53354 33.8263 5.62421 32.9926 5.02975 31.9451C4.43529 30.8975 4.1859 29.6893 4.31698 28.492C4.44807 27.2947 4.95296 26.1691 5.75999 25.275C6.56702 24.3809 7.63519 23.7638 8.81285 23.5111C9.99052 23.2585 11.2178 23.3832 12.3206 23.8676L9.40913 28.745C9.34433 28.8538 9.30948 28.9777 9.30814 29.1043C9.30679 29.2308 9.33899 29.3555 9.40146 29.4656ZM11.2857 28.3957L13.5485 24.605C14.7388 25.5347 15.5133 26.8973 15.7031 28.3957H11.2857ZM10.0242 37.7052C8.7292 37.7088 7.45014 37.4197 6.28261 36.8595C5.11507 36.2993 4.08924 35.4825 3.28181 34.47C2.47437 33.4576 1.9062 32.2758 1.61976 31.0129C1.33332 29.75 1.33602 28.4387 1.62766 27.1769C1.91931 25.9152 2.49234 24.7358 3.30395 23.7267C4.11555 22.7176 5.14474 21.905 6.31457 21.3496C7.48441 20.7942 8.76465 20.5104 10.0596 20.5194C11.3545 20.5284 12.6307 20.8299 13.7927 21.4015L13.0568 22.6344C11.6812 21.992 10.1369 21.8037 8.64729 22.0968C7.15765 22.3899 5.79984 23.1492 4.77023 24.2649C3.74061 25.3806 3.09256 26.7949 2.91978 28.3033C2.74701 29.8116 3.05847 31.3358 3.80912 32.6555C4.55977 33.9751 5.71071 35.0218 7.09549 35.6441C8.48027 36.2665 10.0271 36.4323 11.5123 36.1175C12.9975 35.8027 14.3441 35.0237 15.3574 33.8931C16.3706 32.7625 16.998 31.3389 17.1488 29.8282H18.5805C18.3995 31.974 17.42 33.9737 15.8357 35.4322C14.2514 36.8907 12.1776 37.7018 10.0242 37.7052ZM22.1976 29.1121C22.1976 28.8289 22.2816 28.552 22.439 28.3165C22.5963 28.081 22.82 27.8974 23.0817 27.789C23.3434 27.6806 23.6314 27.6522 23.9092 27.7075C24.187 27.7628 24.4422 27.8992 24.6425 28.0995C24.8427 28.2997 24.9791 28.5549 25.0344 28.8327C25.0897 29.1106 25.0613 29.3985 24.9529 29.6602C24.8445 29.9219 24.6609 30.1456 24.4254 30.3029C24.1899 30.4603 23.913 30.5443 23.6298 30.5443C23.2501 30.5439 22.886 30.3929 22.6175 30.1244C22.349 29.8559 22.198 29.4919 22.1976 29.1121ZM24.6124 26.4324C24.1743 26.2577 23.6963 26.2078 23.2316 26.2881L19.1129 16.4076H31.7605L24.6124 26.4324ZM37.2354 37.7052C35.2373 37.7062 33.3014 37.0105 31.761 35.738C30.2206 34.4654 29.172 32.6956 28.7959 30.7333C28.4197 28.771 28.7395 26.7389 29.7002 24.9869C30.6608 23.2349 32.2023 21.8727 34.0591 21.1348L34.4763 22.5055C32.7672 23.2171 31.3971 24.5585 30.6494 26.2521C29.9018 27.9458 29.8338 29.862 30.4596 31.6044C31.0854 33.3467 32.3571 34.7818 34.0115 35.6127C35.6659 36.4436 37.5764 36.6066 39.3477 36.0682C41.119 35.5297 42.6155 34.3309 43.5275 32.7198C44.4396 31.1087 44.6974 29.2087 44.2475 27.4128C43.7977 25.617 42.6748 24.0628 41.111 23.0718C39.5472 22.0808 37.6623 21.729 35.8463 22.089L35.4279 20.7136C36.606 20.4599 37.8242 20.4569 39.0035 20.7047C40.1828 20.9525 41.2968 21.4456 42.2731 22.152C43.2495 22.8584 44.0663 23.7623 44.6705 24.805C45.2747 25.8476 45.6528 27.0057 45.7803 28.204C45.9078 29.4023 45.7817 30.6141 45.4104 31.7605C45.039 32.9069 44.4307 33.9624 43.6248 34.8584C42.819 35.7544 41.8337 36.4708 40.7329 36.9612C39.6321 37.4516 38.4404 37.7049 37.2354 37.7047V37.7052ZM37.9203 28.9037L36.2672 23.4718C37.7028 23.2262 39.1781 23.537 40.3926 24.3408C41.6072 25.1447 42.4698 26.3812 42.8048 27.7986C43.1398 29.2161 42.9221 30.7079 42.1959 31.9705C41.4697 33.233 40.2897 34.1714 38.896 34.5945C37.5024 35.0177 35.9998 34.8938 34.6942 34.2481C33.3887 33.6025 32.3782 32.4836 31.8686 31.1191C31.359 29.7547 31.3885 28.2474 31.9511 26.9039C32.5137 25.5605 33.5671 24.4819 34.8969 23.8878L36.5504 29.3205C36.5777 29.4104 36.6225 29.4941 36.6822 29.5667C36.7419 29.6394 36.8154 29.6995 36.8983 29.7438C36.9813 29.788 37.0721 29.8155 37.1657 29.8247C37.2593 29.8338 37.3538 29.8244 37.4437 29.7971C37.5337 29.7697 37.6173 29.7249 37.69 29.6652C37.7626 29.6055 37.8228 29.532 37.867 29.4491C37.9113 29.3661 37.9388 29.2753 37.9479 29.1817C37.957 29.0881 37.9477 28.9937 37.9203 28.9037Z" fill="#21A9FF"/>
</svg>
