<svg xmlns="http://www.w3.org/2000/svg" width="48" height="48" viewBox="0 0 48 48" fill="none">
  <path d="M22.3634 27.7272C22.0779 27.7272 21.7925 27.5845 21.6212 27.299L20.565 25.4435L19.0521 26.4997C18.6524 26.7566 18.1387 26.671 17.8532 26.2713C17.5963 25.8717 17.6819 25.3579 18.0816 25.0724L20.3653 23.5024C20.5651 23.3597 20.7935 23.3311 21.0504 23.3597C21.2788 23.4168 21.4786 23.5595 21.5928 23.7593L23.1342 26.4141C23.3626 26.8137 23.2199 27.356 22.8202 27.5844C22.6774 27.6987 22.5347 27.7272 22.3634 27.7272Z" fill="#21A9FF"/>
  <path d="M34.4096 39.0027C33.9814 39.0027 33.6389 38.6887 33.5533 38.2891V38.2605C33.5247 38.1178 33.4962 38.0036 33.4106 37.8894L28.2152 36.3765C28.1011 36.348 27.9869 36.2623 27.8727 36.1767L27.3303 35.6628C27.2732 35.6343 27.2446 35.5772 27.2161 35.5201L22.2777 28.5549C21.9922 28.1553 22.1064 27.6415 22.4775 27.356C22.8772 27.0706 23.391 27.1848 23.6764 27.5559L28.5292 34.4354L28.8717 34.7494L34.1242 36.2909C34.2669 36.3194 34.3811 36.4051 34.4953 36.5192C34.8949 36.9189 35.1518 37.4327 35.2375 38.0036V38.0322C35.3231 38.4889 34.9806 38.9456 34.5238 39.0027L34.4096 39.0027ZM6.57771 29.5256C6.2637 29.5256 5.97823 29.3543 5.80695 29.0689C5.06473 27.613 5.23601 25.8718 6.2637 24.6158L10.5455 19.3919C10.7168 19.1921 10.9452 19.0779 11.2306 19.0779C11.4876 19.0779 11.7445 19.1921 11.8872 19.3919C12.6294 20.3339 13.029 21.4757 13.029 22.6746V22.7317C13.029 23.217 12.6579 23.5881 12.1727 23.5881C11.6874 23.5881 11.3163 23.217 11.3163 22.7317V22.6746C11.3163 22.2464 11.2307 21.8183 11.088 21.4187L7.6054 25.7005C7.00591 26.4427 6.89173 27.4418 7.34848 28.2981C7.57685 28.7263 7.40557 29.2401 6.97737 29.4399C6.86318 29.4971 6.72045 29.5256 6.57771 29.5256Z" fill="#21A9FF"/>
  <path d="M27.8727 35.8913C27.6158 35.8913 27.3303 35.7771 27.159 35.5202L22.2777 28.555C21.4214 27.3561 20.0511 26.6425 18.5953 26.6425H18.5668L15.3126 26.671H15.284C13.1145 26.671 11.3448 24.9297 11.3162 22.7602V22.7031C11.3162 22.2178 11.6873 21.8468 12.1725 21.8468C12.6293 21.8468 13.0289 22.2179 13.0289 22.7031V22.7602C13.0574 23.9877 14.0565 24.9868 15.284 24.9868L18.5382 24.9583H18.5668C20.5935 24.9583 22.4775 25.9288 23.6479 27.5844L28.5577 34.5496C28.8432 34.9492 28.729 35.463 28.3579 35.7485C28.2152 35.8342 28.044 35.8913 27.8727 35.8913Z" fill="#21A9FF"/>
  <path d="M27.2447 42C25.8174 42 24.4187 41.6289 23.1913 40.9153L3.78028 31.8664C3.52336 31.7522 3.35208 31.5238 3.29498 31.2383C3.23789 30.9529 3.32353 30.6959 3.52336 30.4961L5.94969 28.0698C6.29226 27.7272 6.83457 27.7272 7.14859 28.0698C7.49115 28.4123 7.49115 28.9547 7.14859 29.2687L5.60713 30.8101L23.9333 39.3738C23.9619 39.3738 23.9904 39.4024 23.9904 39.4024C24.9609 39.9733 26.0743 40.2587 27.2161 40.2587L32.3543 40.2301C33.3248 40.1445 33.7816 39.4879 33.7816 38.2319C33.7816 37.7466 34.1527 37.3756 34.6379 37.3756C35.1232 37.3756 35.4942 37.7467 35.4942 38.2319C35.4942 41.4576 33.1535 41.8858 32.4399 41.9429H32.3828L27.2447 42ZM21.136 28.6693C20.879 28.6693 20.6221 28.5551 20.4508 28.3267C20.1654 27.9556 20.251 27.4133 20.6221 27.1278L22.3634 25.8147C22.7345 25.5292 23.2768 25.6149 23.5623 25.986C23.8478 26.3571 23.7621 26.8994 23.391 27.1849L21.6497 28.498C21.4785 28.6122 21.3072 28.6693 21.136 28.6693ZM23.2768 31.1527C22.9914 31.1527 22.7344 31.01 22.5632 30.7816C22.3062 30.3819 22.4204 29.8681 22.8201 29.5827L24.4186 28.5265C24.8183 28.2696 25.3321 28.3838 25.6175 28.7834C25.8744 29.1831 25.7603 29.6969 25.3606 29.9823L23.7621 31.0385C23.5908 31.1241 23.4481 31.1527 23.2768 31.1527ZM25.1323 33.8074C24.8468 33.8074 24.5899 33.6647 24.4186 33.4363C24.1617 33.0366 24.2759 32.5229 24.6756 32.2374L26.2741 31.1812C26.6738 30.9243 27.1875 31.0385 27.473 31.4382C27.7299 31.8378 27.6157 32.3516 27.2161 32.637L25.6175 33.6932C25.4749 33.7503 25.3036 33.8074 25.1323 33.8074ZM11.7445 21.6185C11.5447 21.6185 11.3448 21.5328 11.1735 21.3901C10.831 21.0761 10.8024 20.5338 11.1165 20.1912C12.087 19.1065 12.8863 17.879 13.4572 16.5088L17.7676 6.51792C17.9674 6.08972 18.4527 5.88989 18.8808 6.06117C19.309 6.261 19.5089 6.7463 19.3376 7.17443L15.0272 17.1654C14.3706 18.6783 13.4858 20.077 12.3725 21.3045C12.2012 21.5328 11.9729 21.6185 11.7445 21.6185ZM20.251 25.358H20.1654C19.7086 25.3009 19.3376 24.9012 19.3947 24.416C19.5945 22.1609 20.3937 19.9914 21.6783 18.1074L30.1849 6.37519C30.4703 6.00408 30.9842 5.91844 31.3838 6.17536C31.7549 6.46083 31.8405 6.9746 31.5836 7.37425L23.1055 19.0779C21.9923 20.6765 21.3072 22.5891 21.1359 24.5587C21.0789 25.0154 20.7078 25.358 20.251 25.358Z" fill="#21A9FF"/>
  <path d="M26.6738 42H4.72225C4.23695 42 3.86591 41.6289 3.86591 41.1437C3.86591 40.6584 4.23702 40.2873 4.72225 40.2873H26.6738C27.1591 40.2873 27.5301 40.6584 27.5301 41.1437C27.5302 41.6289 27.1591 42 26.6738 42ZM1.8677 38.2891C1.38241 38.2891 1.01137 37.9179 1.01137 37.4327C1.01137 36.9474 1.38248 36.5764 1.8677 36.5764H8.40465C8.88995 36.5764 9.26099 36.9475 9.26099 37.4327C9.26099 37.918 8.88988 38.2891 8.40465 38.2891H1.8677ZM1.8677 35.149C1.38241 35.149 1.01137 34.7779 1.01137 34.2927C1.01137 33.8075 1.38248 33.4364 1.8677 33.4364C2.353 33.4364 2.72404 33.8075 2.72404 34.2927C2.72404 34.7779 2.353 35.149 1.8677 35.149ZM10.0032 31.4382C9.86047 31.4382 9.71774 31.4096 9.575 31.324L6.14952 29.4114C5.74986 29.183 5.57858 28.6692 5.80696 28.2411C6.03533 27.8414 6.54918 27.6701 6.97731 27.8985L10.4028 29.8111C10.8024 30.0394 10.9737 30.5533 10.7454 30.9814C10.5741 31.2669 10.2887 31.4382 10.0032 31.4382Z" fill="#21A9FF"/>
</svg>
