<svg xmlns="http://www.w3.org/2000/svg" width="48" height="48" viewBox="0 0 48 48" fill="none">
  <path fill-rule="evenodd" clip-rule="evenodd" d="M20.5866 6.97283C21.2176 6.35789 22.068 6.00893 22.957 6.00017C23.846 5.99141 24.7034 6.32354 25.3468 6.92592C25.9902 7.5283 26.3689 8.35338 26.4022 9.22565C26.4355 10.0979 26.1209 10.9485 25.5252 11.5965L21.7399 15.6848C21.5539 15.8864 21.454 16.1505 21.4607 16.4224C21.4674 16.6943 21.5802 16.9533 21.7759 17.1458L34.9039 30.0364C35.7801 29.846 36.6932 29.9018 37.5386 30.1974C38.7253 30.6163 40.3133 31.356 41.1653 32.6101C41.2398 32.7173 41.292 32.838 41.3187 32.9652C41.3454 33.0923 41.3462 33.2234 41.321 33.3509C41.2958 33.4783 41.245 33.5996 41.1718 33.7077C41.0985 33.8158 41.0041 33.9085 40.8941 33.9806C40.784 34.0526 40.6605 34.1025 40.5307 34.1273C40.4009 34.1522 40.2674 34.1515 40.1378 34.1253C40.0083 34.0992 39.8853 34.048 39.7761 33.9749C39.6668 33.9017 39.5734 33.8081 39.5013 33.6992C39.0332 33.0093 37.9932 32.4451 36.8612 32.0445C35.8879 31.7003 34.7479 31.9503 33.7746 32.6664L33.3426 32.9845C32.2899 33.7593 30.9969 34.1532 29.6824 34.0995C28.368 34.0458 27.1128 33.5479 26.1293 32.6899C25.4508 32.0981 24.5748 31.7712 23.6673 31.7712C22.7597 31.7712 21.8837 32.0981 21.2052 32.6899C20.2217 33.5479 18.9665 34.0458 17.6521 34.0995C16.3376 34.1532 15.0446 33.7593 13.9919 32.9845L13.5586 32.6664C12.5852 31.9503 11.4466 31.7003 10.4719 32.0445C9.33992 32.4451 8.30125 33.0093 7.83192 33.6992C7.68346 33.9128 7.45522 34.0602 7.19674 34.1095C6.93826 34.1588 6.6704 34.106 6.45132 33.9626C6.23223 33.8192 6.07959 33.5967 6.02653 33.3435C5.97347 33.0903 6.02428 32.8267 6.16792 32.6101C7.01992 31.356 8.60792 30.6163 9.79458 30.1974C10.2475 30.0374 10.7229 29.9473 11.2039 29.9304L17.1613 24.0813C17.4642 23.784 17.6389 23.3835 17.6491 22.963C17.6593 22.5425 17.5041 22.1343 17.2159 21.8232L13.9706 18.3174C13.3369 17.6329 12.9958 16.7352 13.0181 15.8105C13.0405 14.8857 13.4245 14.0049 14.0906 13.3507L20.5866 6.97283ZM13.5546 30.399C13.9839 30.5862 14.3893 30.8232 14.7586 31.0955L15.1906 31.4136C15.8743 31.9168 16.7141 32.1727 17.5679 32.1379C18.4218 32.1031 19.2371 31.7797 19.8759 31.2224C20.9204 30.3111 22.2692 29.8077 23.6666 29.8077C25.0639 29.8077 26.4127 30.3111 27.4573 31.2224C28.0961 31.7797 28.9114 32.1031 29.7652 32.1379C30.619 32.1727 31.4589 31.9168 32.1426 31.4136L32.5746 31.0955C32.6852 31.0143 32.7986 30.9357 32.9159 30.8598L20.3613 18.5347C19.802 17.9853 19.4796 17.2457 19.4607 16.4692C19.4419 15.6928 19.728 14.9389 20.2599 14.364L24.0466 10.2757C24.3053 10.0092 24.4455 9.65275 24.4365 9.28474C24.4275 8.91673 24.27 8.56731 23.9986 8.31334C23.7272 8.05937 23.3641 7.92165 22.9893 7.93049C22.6145 7.93933 22.2586 8.094 21.9999 8.36047L15.5039 14.7384C15.201 15.0357 15.0263 15.4362 15.0161 15.8567C15.0059 16.2772 15.161 16.6854 15.4493 16.9965L18.6946 20.5023C19.3283 21.1868 19.6694 22.0845 19.647 23.0092C19.6247 23.934 19.2407 24.8148 18.5746 25.469L13.5546 30.399Z" fill="#21A9FF"/>
  <path fill-rule="evenodd" clip-rule="evenodd" d="M27.9999 19.0819C27.9999 17.9535 28.4565 16.8714 29.2691 16.0735C30.0818 15.2756 31.184 14.8274 32.3333 14.8274C33.4825 14.8274 34.5847 15.2756 35.3974 16.0735C36.21 16.8714 36.6666 17.9535 36.6666 19.0819C36.6666 20.2103 36.21 21.2924 35.3974 22.0903C34.5847 22.8882 33.4825 23.3365 32.3333 23.3365C31.184 23.3365 30.0818 22.8882 29.2691 22.0903C28.4565 21.2924 27.9999 20.2103 27.9999 19.0819ZM32.3333 16.791C31.7144 16.791 31.1209 17.0324 30.6833 17.462C30.2458 17.8916 29.9999 18.4743 29.9999 19.0819C29.9999 19.6895 30.2458 20.2722 30.6833 20.7018C31.1209 21.1315 31.7144 21.3728 32.3333 21.3728C32.9521 21.3728 33.5456 21.1315 33.9832 20.7018C34.4208 20.2722 34.6666 19.6895 34.6666 19.0819C34.6666 18.4743 34.4208 17.8916 33.9832 17.462C33.5456 17.0324 32.9521 16.791 32.3333 16.791Z" fill="#21A9FF"/>
  <path d="M6.44525 37.8988C6.66592 38.0432 6.93597 38.0957 7.19602 38.0446C7.45607 37.9935 7.6848 37.8431 7.83192 37.6265C8.30125 36.9366 9.33992 36.3724 10.4719 35.9718C11.4453 35.6275 12.5866 35.8776 13.5586 36.5936L13.9906 36.9117C15.0433 37.6865 16.3362 38.0804 17.6507 38.0267C18.9652 37.9731 20.2204 37.4751 21.2039 36.6172C21.8824 36.025 22.7587 35.6979 23.6666 35.6979C24.5744 35.6979 25.4507 36.025 26.1293 36.6172C27.1128 37.4751 28.368 37.9731 29.6825 38.0267C30.9969 38.0804 32.2899 37.6865 33.3426 36.9117L33.7746 36.5936C34.7479 35.8776 35.8866 35.6275 36.8613 35.9718C37.9933 36.3724 39.0319 36.9366 39.5013 37.6265C39.6497 37.84 39.878 37.9874 40.1364 38.0367C40.3949 38.086 40.6628 38.0333 40.8819 37.8899C41.1009 37.7465 41.2536 37.524 41.3066 37.2708C41.3597 37.0176 41.3089 36.754 41.1653 36.5373C40.3133 35.2832 38.7253 34.5449 37.5386 34.1247C35.7706 33.4989 33.9333 34.0226 32.5746 35.0227L32.1426 35.3408C31.4589 35.8441 30.619 36.1 29.7652 36.0652C28.9114 36.0303 28.0961 35.7069 27.4573 35.1497C26.4127 34.2384 25.0639 33.735 23.6666 33.735C22.2692 33.735 20.9205 34.2384 19.8759 35.1497C19.2371 35.7069 18.4218 36.0303 17.568 36.0652C16.7141 36.1 15.8743 35.8441 15.1906 35.3408L14.7586 35.0227C13.3999 34.0226 11.5626 33.4989 9.79459 34.1247C8.60792 34.5436 7.01992 35.2832 6.16792 36.5373C6.02083 36.754 5.96741 37.0191 6.01942 37.2745C6.07143 37.5298 6.22461 37.7544 6.44525 37.8988Z" fill="#21A9FF"/>
  <path d="M7.83192 41.5538C7.68346 41.7673 7.45522 41.9147 7.19674 41.964C6.93826 42.0133 6.6704 41.9605 6.45132 41.8171C6.23223 41.6737 6.07959 41.4513 6.02653 41.1981C5.97347 40.9448 6.02428 40.6813 6.16792 40.4646C7.01992 39.2105 8.60792 38.4709 9.79458 38.052C11.5626 37.4262 13.3999 37.9499 14.7586 38.95L15.1906 39.2681C15.8743 39.7714 16.7141 40.0273 17.5679 39.9925C18.4218 39.9576 19.2371 39.6342 19.8759 39.077C20.9204 38.1657 22.2692 37.6623 23.6666 37.6623C25.0639 37.6623 26.4127 38.1657 27.4573 39.077C28.0961 39.6342 28.9114 39.9576 29.7652 39.9925C30.619 40.0273 31.4589 39.7714 32.1426 39.2681L32.5746 38.95C33.9333 37.9499 35.7706 37.4262 37.5386 38.052C38.7253 38.4709 40.3133 39.2105 41.1653 40.4646C41.2398 40.5719 41.292 40.6925 41.3187 40.8197C41.3454 40.9469 41.3462 41.078 41.321 41.2054C41.2958 41.3329 41.245 41.4542 41.1718 41.5623C41.0985 41.6703 41.0041 41.7631 40.8941 41.8351C40.784 41.9071 40.6605 41.957 40.5307 41.9819C40.4009 42.0067 40.2674 42.006 40.1378 41.9799C40.0083 41.9537 39.8853 41.9026 39.7761 41.8294C39.6668 41.7563 39.5734 41.6626 39.5013 41.5538C39.0332 40.8639 37.9932 40.2997 36.8612 39.8991C35.8879 39.5548 34.7479 39.8048 33.7746 40.5209L33.3426 40.839C32.2899 41.6138 30.9969 42.0077 29.6824 41.954C28.368 41.9004 27.1128 41.4024 26.1293 40.5445C25.4508 39.9526 24.5748 39.6257 23.6673 39.6257C22.7597 39.6257 21.8837 39.9526 21.2052 40.5445C20.2217 41.4024 18.9665 41.9004 17.6521 41.954C16.3376 42.0077 15.0446 41.6138 13.9919 40.839L13.5586 40.5209C12.5852 39.8048 11.4466 39.5548 10.4719 39.8991C9.33992 40.2997 8.30125 40.8639 7.83192 41.5538Z" fill="#21A9FF"/>
</svg>
